<svg xmlns="http://www.w3.org/2000/svg" width="18.012" height="18.012" viewBox="0 0 18.012 18.012">
  <path id="b15b0ce39fa8091efe1a5eeab5932aba" d="M10.105,8.3h1.8a.9.9,0,0,1,.9.9.9.9,0,0,0,1.8,0,2.7,2.7,0,0,0-2.7-2.7h-1.8A2.7,2.7,0,0,0,7.4,9.2v3.6a2.7,2.7,0,0,0,2.7,2.7h1.8a2.7,2.7,0,0,0,2.7-2.7.9.9,0,1,0-1.8,0,.9.9,0,0,1-.9.9h-1.8a.9.9,0,0,1-.9-.9V9.2A.9.9,0,0,1,10.105,8.3Zm.9-6.3a9.006,9.006,0,1,0,9.006,9.006A9.006,9.006,0,0,0,11.006,2Zm0,16.211a7.2,7.2,0,1,1,7.2-7.2A7.2,7.2,0,0,1,11.006,18.211Z" transform="translate(-2 -2)" fill="#fff"/>
</svg>
