<svg xmlns="http://www.w3.org/2000/svg" width="29.591" height="29.591" viewBox="0 0 29.591 29.591">
  <path id="_6c263dac03c010a5835cb3219c40cc2d" data-name="6c263dac03c010a5835cb3219c40cc2d" d="M5.925,5A.962.962,0,0,0,5,5.925v11.1a.96.96,0,0,0,.925.925h11.1a.962.962,0,0,0,.925-.925V5.925A.962.962,0,0,0,17.021,5ZM22.57,5a.962.962,0,0,0-.925.925v11.1a.96.96,0,0,0,.925.925h11.1a.962.962,0,0,0,.925-.925V5.925A.962.962,0,0,0,33.666,5ZM5.925,21.645A.962.962,0,0,0,5,22.57v11.1a.96.96,0,0,0,.925.925h11.1a.962.962,0,0,0,.925-.925V22.57a.962.962,0,0,0-.925-.925Zm21.269,0v1.5a7.1,7.1,0,0,0-1.9.841l-1.1-1.1L22.888,24.2l1.152,1.152a4.748,4.748,0,0,0-.66,1.846H21.645v1.849h1.831a4.784,4.784,0,0,0,.773,1.64l-1.361,1.361L24.2,33.352l1.413-1.413a4.728,4.728,0,0,0,1.77.655v2h1.849V32.525a4.772,4.772,0,0,0,1.4-.586l1.413,1.413,1.308-1.308-1.361-1.361a4.772,4.772,0,0,0,.773-1.64h1.831V27.193H32.856a4.748,4.748,0,0,0-.66-1.846L33.348,24.2l-1.308-1.308-1.1,1.1a4.808,4.808,0,0,0-1.9-.843v-1.5H27.193Zm.925,3.976a2.312,2.312,0,1,1-2.312,2.312A2.312,2.312,0,0,1,28.118,25.621Z" transform="translate(-5 -5)" fill="#de291b"/>
</svg>
