<svg xmlns="http://www.w3.org/2000/svg" width="24.286" height="34" viewBox="0 0 24.286 34">
  <g id="_6be3a66b73401bbd7a0153c759d4ebb7" data-name="6be3a66b73401bbd7a0153c759d4ebb7" transform="translate(-6 -2)">
    <path id="Path_116247" data-name="Path 116247" d="M26.164,20.942A7.281,7.281,0,0,1,30.286,27.5v7.893a.607.607,0,0,1-.607.607H6.607A.607.607,0,0,1,6,35.393V27.5a7.281,7.281,0,0,1,4.121-6.558.608.608,0,0,1,.748.2l6.059,8.33V25.447L15.8,23.531a.588.588,0,0,1,.506-.888h3.683a.588.588,0,0,1,.506.888l-1.134,1.916v4.027l6.058-8.331A.611.611,0,0,1,26.164,20.942Zm2.907-8.013a10.928,10.928,0,0,1-1.463,5.465,1.212,1.212,0,0,1-1.05.606H23.135a1.821,1.821,0,1,1,0-2.429h2.69A8.5,8.5,0,1,0,9.911,10.8c-.05.191-.268,1.081-.268,1.081v3.343a1.219,1.219,0,0,1-1.214,1.22A2.317,2.317,0,0,1,6,14.142V11.713A2.433,2.433,0,0,1,7.808,9.365a10.931,10.931,0,0,1,21.263,3.564Z" fill="#de291b"/>
    <path id="Path_116248" data-name="Path 116248" d="M24.571,12.286a7.4,7.4,0,0,1-.146,1.455,1.214,1.214,0,1,1-2.38-.482,4.921,4.921,0,0,0,.1-.973,4.766,4.766,0,0,0-.219-1.361,3.85,3.85,0,0,1-2.93-2.2,4.836,4.836,0,0,1-4.137,2.345H12.6a4.783,4.783,0,0,0-.172,1.214,4.871,4.871,0,0,0,3.885,4.761,1.214,1.214,0,1,1-.483,2.379,7.286,7.286,0,1,1,8.742-7.14Z" transform="translate(0.857 0.643)" fill="#de291b"/>
  </g>
</svg>
