<svg xmlns="http://www.w3.org/2000/svg" width="39.827" height="33.962" viewBox="0 0 39.827 33.962">
  <g id="_9e84d9f231dd9937cb922f0e604166d8" data-name="9e84d9f231dd9937cb922f0e604166d8" transform="translate(-0.647 -38.249)">
    <path id="Path_116243" data-name="Path 116243" d="M40,277.924a3.588,3.588,0,0,0-3.284-.187.049.049,0,0,1-.021.009s-.013,0-.017.008,0,0-.013,0l-.008,0,0,0a.467.467,0,0,0-.055.021c-.4.178-1.953.869-7.241,3.207v-.008c-1.186-1.682-3.275-.441-6.105-.195-4.389-2.25-8.533-4.453-13.08-4.313v9h.754l9.44,3.729a5.294,5.294,0,0,0,4.707-.415l14.935-9.215A.97.97,0,0,0,40,277.924ZM8.446,275.371H7.688V274.8a.8.8,0,0,0-.8-.8H1.449a.8.8,0,0,0-.8.8v12.847a.8.8,0,0,0,.8.8H6.886a.8.8,0,0,0,.8-.8v-.567h.758a.884.884,0,0,0,.884-.884v-9.945A.884.884,0,0,0,8.446,275.371ZM5.234,287.223a.992.992,0,1,1,.992-.992A.995.995,0,0,1,5.234,287.223Z" transform="translate(0 -217.368)" fill="#de291b"/>
    <path id="Path_116244" data-name="Path 116244" d="M184.281,50.507l1.694.195a8.04,8.04,0,0,0,1.033,2.491l-1.067,1.338a.88.88,0,0,0,.068,1.169l1.169,1.169a.88.88,0,0,0,1.169.068l1.338-1.067a8.035,8.035,0,0,0,2.491,1.033l.195,1.694c.133,1.173,1.672.666,2.516.779a.873.873,0,0,0,.873-.779l.195-1.694a8.035,8.035,0,0,0,2.49-1.034l1.338,1.067a.88.88,0,0,0,1.169-.068l1.169-1.169a.88.88,0,0,0,.068-1.169l-1.067-1.338a8.037,8.037,0,0,0,1.033-2.49l1.694-.195a.873.873,0,0,0,.779-.873V47.991a.873.873,0,0,0-.779-.873l-1.694-.195a8.037,8.037,0,0,0-1.033-2.49l1.067-1.338a.88.88,0,0,0-.068-1.169l-1.169-1.169a.88.88,0,0,0-1.169-.068l-1.338,1.067a8.035,8.035,0,0,0-2.49-1.033l-.195-1.694a.873.873,0,0,0-.873-.779h-1.643a.873.873,0,0,0-.873.779l-.195,1.694a8.035,8.035,0,0,0-2.491,1.033l-1.338-1.067a.88.88,0,0,0-1.169.068l-1.169,1.169a.88.88,0,0,0-.068,1.169l1.067,1.338a8.039,8.039,0,0,0-1.033,2.491l-1.694.195a.873.873,0,0,0-.779.873v1.643A.873.873,0,0,0,184.281,50.507Zm7.058-4.412a3.847,3.847,0,1,1,0,5.435A3.847,3.847,0,0,1,191.339,46.1Z" transform="translate(-168.595)" fill="#de291b"/>
  </g>
</svg>
