<svg xmlns="http://www.w3.org/2000/svg" width="30" height="30" viewBox="0 0 30 30">
  <g id="Group_107244" data-name="Group 107244" transform="translate(-826 -575)">
    <g id="Group_107072" data-name="Group 107072" transform="translate(-150 -48)">
      <rect id="Rectangle_50884" data-name="Rectangle 50884" width="30" height="30" rx="3" transform="translate(976 623)"/>
    </g>
    <g id="Group_107074" data-name="Group 107074" transform="translate(827.456 576.695)">
      <g id="Group_107075" data-name="Group 107075" transform="translate(1.544 1.306)">
        <path id="Path_116370" data-name="Path 116370" d="M11.451,14.632a8.951,8.951,0,0,1-.957-1.245c-.074-.137.163-.515.341-.7.717-.757,1.475-1.474,2.2-2.223.307-.318.537-.3.852,0,.959.908.97.9.049,1.817-.609.609-1.215,1.221-1.829,1.824-.139.137-.3.246-.655.525" transform="translate(-10.451 -10.021)" fill="#fff"/>
        <path id="Path_116371" data-name="Path 116371" d="M51.67,11.366a3.762,3.762,0,0,1-.333.471c-.779.79-1.571,1.568-2.349,2.359a.5.5,0,0,1-.811.025c-1.022-.9-1.03-.9-.076-1.859.609-.609,1.236-1.2,1.819-1.832.372-.4.662-.382,1,.022.226.273.482.522.755.814" transform="translate(-42.344 -10.026)" fill="#fff"/>
        <path id="Path_116372" data-name="Path 116372" d="M126.243,160.2a3.98,3.98,0,0,1-.338.468c-.78.79-1.576,1.563-2.348,2.361-.308.318-.563.328-.846-.007a2.2,2.2,0,0,0-.336-.336c-.523-.4-.517-.748-.016-1.2.739-.667,1.434-1.385,2.117-2.11.372-.4.666-.385,1,.015.231.272.489.521.764.81" transform="translate(-106.779 -138.613)" fill="#fff"/>
        <path id="Path_116373" data-name="Path 116373" d="M88.939,160.168a3.22,3.22,0,0,1-.3.448c-.8.806-1.6,1.6-2.4,2.407-.281.287-.5.279-.8.006-1.008-.917-1.017-.907-.063-1.861.608-.608,1.231-1.2,1.82-1.83.341-.362.623-.389.953-.006.246.286.519.55.791.836" transform="translate(-74.545 -138.591)" fill="#fff"/>
        <path id="Path_116374" data-name="Path 116374" d="M67.207,139.686a4.681,4.681,0,0,1,.439.333c.789.781,1.563,1.575,2.36,2.347.31.3.354.558.009.845-.052.043-.1.1-.144.144-.793.8-.793.8-1.573.024-.64-.64-1.267-1.3-1.927-1.915-.386-.362-.413-.659,0-1,.287-.24.551-.509.837-.774" transform="translate(-58.477 -121.857)" fill="#fff"/>
        <path id="Path_116375" data-name="Path 116375" d="M29.935,139.789a3.819,3.819,0,0,1,.422.309c.789.78,1.562,1.575,2.36,2.345.345.333.3.576-.017.9-.888.916-.877.927-1.771.033L29.3,141.747c-.7-.7-.7-.705.028-1.425.188-.185.4-.349.609-.533" transform="translate(-26.255 -121.946)" fill="#fff"/>
        <path id="Path_116376" data-name="Path 116376" d="M160.3,126.292a8.886,8.886,0,0,1-.937-1.252c-.076-.146.145-.525.322-.712.7-.742,1.446-1.437,2.149-2.175.347-.363.634-.383.953,0a1.749,1.749,0,0,0,.289.286c.52.392.517.74.02,1.19-.739.667-1.416,1.4-2.125,2.1-.141.139-.3.254-.671.556" transform="translate(-139.062 -106.468)" fill="#fff"/>
        <path id="Path_116377" data-name="Path 116377" d="M107.637,32.113a9.039,9.039,0,0,1-1.265.925c-.147.075-.52-.143-.7-.317-.742-.7-1.438-1.443-2.176-2.146-.352-.335-.426-.621-.015-.943a.5.5,0,0,0,.048-.048c.838-.864.838-.864,1.669-.033.624.624,1.251,1.246,1.871,1.874.137.139.252.3.571.687" transform="translate(-90.55 -26.176)" fill="#fff"/>
        <path id="Path_116378" data-name="Path 116378" d="M144.775,32a8.876,8.876,0,0,1-1.208.98c-.127.073-.509-.172-.7-.351-.723-.684-1.4-1.414-2.126-2.1-.372-.352-.455-.648-.021-1a3.3,3.3,0,0,0,.433-.431c.311-.362.584-.32.9.011.755.781,1.535,1.537,2.3,2.311a5.893,5.893,0,0,1,.418.574" transform="translate(-122.715 -26.105)" fill="#fff"/>
        <path id="Path_116379" data-name="Path 116379" d="M14.521,48.507a3.47,3.47,0,0,1-.3.428c-.78.789-1.573,1.566-2.349,2.36a.523.523,0,0,1-.861.014c-.975-.9-.985-.891-.069-1.807l1.634-1.634c.7-.7.7-.7,1.419.027.183.187.343.4.528.612" transform="translate(-10.265 -42.084)" fill="#fff"/>
        <path id="Path_116380" data-name="Path 116380" d="M51.8,48.542a5.476,5.476,0,0,1-.376.491c-.764.773-1.544,1.53-2.3,2.312-.333.344-.581.3-.908-.018-.913-.884-.924-.873-.036-1.761.625-.624,1.263-1.235,1.868-1.878.349-.371.627-.364.949.013.243.284.515.543.8.841" transform="translate(-42.452 -42.143)" fill="#fff"/>
        <path id="Path_116381" data-name="Path 116381" d="M125.073,120.343a8.959,8.959,0,0,1,.968,1.236c.074.134-.164.513-.342.7-.7.74-1.445,1.436-2.147,2.175-.35.368-.634.369-.948-.015a2.14,2.14,0,0,0-.337-.335c-.476-.37-.444-.7,0-1.1.747-.692,1.446-1.435,2.172-2.15.138-.136.3-.244.639-.509" transform="translate(-106.727 -105.147)" fill="#fff"/>
        <path id="Path_116382" data-name="Path 116382" d="M67.184,102.556a4.184,4.184,0,0,1,.424.317c.789.781,1.561,1.579,2.362,2.346.351.336.3.575-.017.9-.889.913-.878.924-1.769.033L66.6,104.568c-.751-.751-.753-.753.028-1.521.171-.168.36-.319.556-.491" transform="translate(-58.449 -89.78)" fill="#fff"/>
        <path id="Path_116383" data-name="Path 116383" d="M33.349,106.505a8.965,8.965,0,0,1-1.23.982c-.133.075-.517-.165-.708-.344-.725-.683-1.4-1.414-2.127-2.1-.375-.356-.407-.625-.021-1.009.87-.866.854-.883,1.712-.025.625.624,1.252,1.246,1.871,1.875.138.14.25.306.5.62" transform="translate(-26.44 -90.489)" fill="#fff"/>
        <path id="Path_116384" data-name="Path 116384" d="M163.158,85.822a4.416,4.416,0,0,1-.331.444c-.78.788-1.573,1.565-2.348,2.359-.3.308-.566.334-.857.007-.09-.1-.191-.193-.287-.289-.646-.648-.647-.648-.015-1.281.688-.689,1.392-1.362,2.059-2.071.364-.387.656-.411,1,0,.241.287.511.549.778.833" transform="translate(-138.629 -74.346)" fill="#fff"/>
        <path id="Path_116385" data-name="Path 116385" d="M163.289,160.216a4.782,4.782,0,0,1-.335.439c-.781.789-1.576,1.565-2.349,2.362-.3.311-.561.346-.846,0-.058-.069-.128-.129-.192-.193-.749-.745-.749-.745-.019-1.475.657-.657,1.329-1.3,1.965-1.977.365-.389.661-.408,1,0,.24.287.507.551.773.837" transform="translate(-138.761 -138.61)" fill="#fff"/>
        <path id="Path_116386" data-name="Path 116386" d="M106.191,70.375a4.3,4.3,0,0,1-.42-.319c-.789-.781-1.564-1.575-2.361-2.348-.3-.3-.371-.554-.019-.844a1.258,1.258,0,0,0,.1-.1c.837-.863.837-.863,1.667-.033l1.586,1.586c.8.8.8.8-.034,1.617-.157.152-.332.284-.513.437" transform="translate(-90.512 -58.299)" fill="#fff"/>
        <path id="Path_116387" data-name="Path 116387" d="M143.5,70.372a5.475,5.475,0,0,1-.465-.365c-.773-.765-1.529-1.546-2.312-2.3-.339-.326-.328-.566,0-.9.895-.93.882-.941,1.769-.055.608.609,1.2,1.235,1.832,1.818.419.386.42.7-.01,1.055-.273.226-.522.48-.809.748" transform="translate(-122.757 -58.282)" fill="#fff"/>
        <path id="Path_116388" data-name="Path 116388" d="M14.573,85.82c-.179.22-.278.367-.4.491-.749.756-1.516,1.495-2.25,2.265-.351.368-.636.366-.952-.013a2.213,2.213,0,0,0-.336-.335c-.47-.364-.456-.685-.012-1.094.748-.69,1.464-1.418,2.163-2.159.368-.39.662-.4,1,.006.24.284.508.545.785.839" transform="translate(-10.281 -74.337)" fill="#fff"/>
        <path id="Path_116389" data-name="Path 116389" d="M123.173,88.956a8.819,8.819,0,0,1-1.031-1.142c-.074-.114.172-.512.352-.7.683-.724,1.414-1.4,2.1-2.126.359-.38.654-.432,1-.01a4.654,4.654,0,0,0,.478.481.45.45,0,0,1,.029.75c-.819.813-1.63,1.634-2.451,2.444a3.2,3.2,0,0,1-.471.305" transform="translate(-106.905 -74.336)" fill="#fff"/>
        <path id="Path_116390" data-name="Path 116390" d="M144.8,106.349a8.8,8.8,0,0,1-1.208.979c-.127.073-.51-.178-.7-.359-.723-.684-1.4-1.416-2.126-2.1-.381-.359-.436-.652-.011-1a3.232,3.232,0,0,0,.432-.431c.312-.37.582-.313.9.016.755.781,1.535,1.537,2.3,2.311a5.7,5.7,0,0,1,.417.579" transform="translate(-122.735 -90.327)" fill="#fff"/>
        <path id="Path_116391" data-name="Path 116391" d="M13.44,120.32a8.883,8.883,0,0,1,.961,1.238c.074.135-.17.513-.349.7-.667.708-1.395,1.361-2.047,2.082-.436.482-.77.455-1.143-.026a1.332,1.332,0,0,0-.24-.24c-.477-.367-.441-.691,0-1.1.747-.691,1.446-1.435,2.172-2.15.138-.136.306-.244.649-.512" transform="translate(-10.277 -105.127)" fill="#fff"/>
        <path id="Path_116392" data-name="Path 116392" d="M88.943,122.989a3.293,3.293,0,0,1-.3.451c-.795.805-1.6,1.6-2.4,2.4-.28.285-.5.279-.8.005-1.006-.915-1.015-.906-.061-1.86.608-.608,1.229-1.2,1.82-1.828.339-.358.625-.39.955-.006.246.285.517.548.788.832" transform="translate(-74.548 -106.476)" fill="#fff"/>
        <path id="Path_116393" data-name="Path 116393" d="M87.9,45.772a8.935,8.935,0,0,1,.953,1.239c.076.141-.147.521-.323.707-.7.741-1.443,1.437-2.146,2.173-.342.358-.632.392-.954,0a1.732,1.732,0,0,0-.288-.287c-.531-.4-.505-.751-.014-1.2.736-.669,1.414-1.4,2.122-2.1.14-.139.3-.253.651-.536" transform="translate(-74.61 -40.724)" fill="#fff"/>
        <path id="Path_116394" data-name="Path 116394" d="M107.587,143.591a8.884,8.884,0,0,1-1.116,1.071c-.116.081-.527-.131-.713-.3-.742-.7-1.438-1.442-2.174-2.146-.347-.332-.395-.582-.029-.953.891-.9.875-.92,1.762-.034.625.624,1.251,1.246,1.871,1.874.123.124.221.272.4.493" transform="translate(-90.641 -122.62)" fill="#fff"/>
        <path id="Path_116395" data-name="Path 116395" d="M123.149,14.608a8.849,8.849,0,0,1-.963-1.239c-.076-.141.151-.524.329-.712.7-.741,1.445-1.436,2.147-2.174.35-.369.634-.369.949.014a2.163,2.163,0,0,0,.336.335c.47.365.456.685.012,1.095-.748.69-1.446,1.435-2.17,2.151-.139.137-.3.251-.64.531" transform="translate(-106.942 -9.999)" fill="#fff"/>
        <path id="Path_116396" data-name="Path 116396" d="M87.854,8.677a8.995,8.995,0,0,1,.975,1.232c.076.136-.151.519-.328.706-.7.741-1.445,1.437-2.147,2.175-.349.368-.634.373-.952-.008a2.331,2.331,0,0,0-.337-.335c-.466-.368-.448-.694-.008-1.1.747-.692,1.446-1.435,2.17-2.152.139-.138.3-.251.627-.517" transform="translate(-74.589 -8.677)" fill="#fff"/>
        <path id="Path_116397" data-name="Path 116397" d="M51.79,85.771a5.3,5.3,0,0,1-.371.486c-.763.773-1.542,1.53-2.3,2.312-.327.34-.572.317-.9,0-.922-.891-.933-.879-.052-1.761.624-.624,1.261-1.236,1.867-1.876.341-.36.626-.383.955,0,.245.284.516.545.8.845" transform="translate(-42.447 -74.309)" fill="#fff"/>
        <path id="Path_116398" data-name="Path 116398" d="M31.963,70.4a4.993,4.993,0,0,1-.471-.36c-.773-.763-1.53-1.542-2.311-2.3-.338-.327-.315-.577.005-.91.883-.921.872-.932,1.763-.042.624.624,1.234,1.263,1.877,1.866.371.348.367.627-.01.948-.286.244-.553.513-.854.794" transform="translate(-26.395 -58.318)" fill="#fff"/>
        <path id="Path_116399" data-name="Path 116399" d="M160.286,51.9a8.884,8.884,0,0,1-.968-1.233c-.074-.133.171-.513.35-.7.667-.708,1.4-1.36,2.047-2.082.438-.485.77-.449,1.143.028a1.755,1.755,0,0,0,.288.288c.422.336.383.635,0,1-.756.716-1.476,1.469-2.218,2.2-.138.136-.306.243-.642.5" transform="translate(-139.022 -42.246)" fill="#fff"/>
        <path id="Path_116400" data-name="Path 116400" d="M70.405,32.021a8.361,8.361,0,0,1-1.176,1.064c-.119.075-.533-.21-.74-.406-.723-.683-1.406-1.41-2.124-2.1-.334-.32-.343-.562-.013-.9.9-.931.886-.943,1.819-.01.608.608,1.219,1.213,1.821,1.826a6.431,6.431,0,0,1,.414.528" transform="translate(-58.509 -26.21)" fill="#fff"/>
        <path id="Path_116401" data-name="Path 116401" d="M48.87,163.424A9.226,9.226,0,0,1,47.8,162.3c-.079-.113.133-.518.3-.7.7-.742,1.442-1.44,2.147-2.175.329-.343.58-.405.954-.037.911.9.927.88.033,1.774-.624.624-1.247,1.251-1.875,1.871-.125.123-.275.22-.493.392" transform="translate(-42.677 -138.662)" fill="#fff"/>
        <path id="Path_116402" data-name="Path 116402" d="M67.221,65.317a4.726,4.726,0,0,1,.447.337c.788.781,1.564,1.575,2.36,2.347.315.306.3.537,0,.853-.9.962-.89.972-1.811.052-.608-.608-1.2-1.233-1.831-1.819-.39-.363-.411-.657,0-1,.286-.238.548-.505.832-.77" transform="translate(-58.49 -57.609)" fill="#fff"/>
        <path id="Path_116403" data-name="Path 116403" d="M106.893,107.551a2.9,2.9,0,0,1-.426-.284c-.822-.811-1.65-1.617-2.437-2.462a.7.7,0,0,1-.022-.671c.817-1.088.941-1.085,1.883-.143.576.576,1.126,1.184,1.738,1.72.514.451.474.8-.029,1.2-.243.191-.459.416-.707.645" transform="translate(-91.186 -90.423)" fill="#fff"/>
        <path id="Path_116404" data-name="Path 116404" d="M163.3,11.372a2.888,2.888,0,0,1-.283.422c-.8.806-1.6,1.6-2.4,2.408a.494.494,0,0,1-.806.023c-1.02-.914-1.028-.9-.071-1.862l1.538-1.538c.774-.774.776-.775,1.565.032.154.158.293.33.455.514" transform="translate(-138.787 -10.034)" fill="#fff"/>
        <path id="Path_116405" data-name="Path 116405" d="M13.333,158.2a9.011,9.011,0,0,1,1.073,1.121c.079.113-.142.522-.317.708-.7.742-1.444,1.44-2.148,2.177-.335.351-.623.424-.946.015a.518.518,0,0,0-.048-.048c-.862-.833-.862-.833-.034-1.662.641-.641,1.279-1.284,1.925-1.92.124-.122.274-.218.5-.391" transform="translate(-10.291 -137.853)" fill="#fff"/>
        <path id="Path_116406" data-name="Path 116406" d="M89,85.829a5.438,5.438,0,0,1-.373.483c-.763.772-1.542,1.529-2.3,2.309-.33.341-.578.3-.907-.014-.914-.886-.925-.874-.033-1.766.608-.608,1.235-1.2,1.817-1.83.389-.423.7-.41,1.051.019.224.272.479.518.742.8" transform="translate(-74.597 -74.355)" fill="#fff"/>
        <path id="Path_116407" data-name="Path 116407" d="M123.216,51.741a9.088,9.088,0,0,1-1.06-1.161c-.075-.114.167-.514.347-.7.682-.724,1.413-1.4,2.1-2.125.354-.374.65-.45.994-.016a2.413,2.413,0,0,0,.383.383c.425.339.378.635,0,1-.755.715-1.475,1.468-2.215,2.2-.138.136-.3.244-.542.43" transform="translate(-106.917 -42.163)" fill="#fff"/>
        <path id="Path_116408" data-name="Path 116408" d="M50.641,120.337a8.771,8.771,0,0,1,.961,1.232c.075.137-.162.519-.34.709-.666.709-1.392,1.361-2.045,2.08-.433.476-.769.466-1.141-.026a1.259,1.259,0,0,0-.239-.24c-.478-.363-.449-.685-.009-1.091.748-.69,1.445-1.434,2.169-2.149.139-.137.305-.246.644-.515" transform="translate(-42.422 -105.141)" fill="#fff"/>
        <path id="Path_116409" data-name="Path 116409" d="M30.033,28.111a5.343,5.343,0,0,1,.513.391c.757.746,1.493,1.513,2.262,2.246.367.35.37.633-.015.946a1.709,1.709,0,0,0-.287.288c-.394.521-.744.507-1.19.015-.667-.736-1.385-1.429-2.107-2.112-.384-.364-.406-.663,0-1.006.271-.228.519-.483.82-.766" transform="translate(-26.376 -25.466)" fill="#fff"/>
        <path id="Path_116410" data-name="Path 116410" d="M144.824,143.663a8.752,8.752,0,0,1-1.236.955c-.14.075-.521-.158-.71-.336-.74-.7-1.434-1.444-2.171-2.145-.37-.351-.367-.633.018-.944a2.041,2.041,0,0,0,.335-.336c.364-.474.683-.454,1.091-.012.69.747,1.434,1.444,2.149,2.167.137.139.247.3.525.651" transform="translate(-122.718 -122.567)" fill="#fff"/>
      </g>
    </g>
  </g>
</svg>
