<svg xmlns="http://www.w3.org/2000/svg" xmlns:xlink="http://www.w3.org/1999/xlink" width="162.836" height="65" viewBox="0 0 162.836 65">
  <defs>
    <filter id="Ellipse_21" x="0" y="0" width="65" height="65" filterUnits="userSpaceOnUse">
      <feOffset input="SourceAlpha"/>
      <feGaussianBlur stdDeviation="1.5" result="blur"/>
      <feFlood flood-opacity="0.161"/>
      <feComposite operator="in" in2="blur"/>
      <feComposite in="SourceGraphic"/>
    </filter>
    <linearGradient id="linear-gradient" x1="0.555" y1="0.774" x2="0.422" y2="-0.102" gradientUnits="objectBoundingBox">
      <stop offset="0" stop-color="#fff"/>
      <stop offset="1"/>
    </linearGradient>
    <linearGradient id="linear-gradient-2" x1="0.441" y1="0.079" x2="0.622" y2="1.438" xlink:href="#linear-gradient"/>
    <linearGradient id="linear-gradient-3" x1="0.86" y1="0.363" x2="-0.159" y2="1.065" xlink:href="#linear-gradient"/>
    <linearGradient id="linear-gradient-4" x1="0.437" y1="0.89" x2="0.826" y2="-0.915" xlink:href="#linear-gradient"/>
    <linearGradient id="linear-gradient-5" x1="0.505" y1="0.724" x2="0.427" y2="-0.554" xlink:href="#linear-gradient"/>
  </defs>
  <g id="Group_105342" data-name="Group 105342" transform="translate(-101.5 -6.5)">
    <g id="Group_105301" data-name="Group 105301" transform="translate(34.06 23.986)">
      <g id="Group_105300" data-name="Group 105300" transform="translate(100.964)">
        <g id="Group_105298" data-name="Group 105298" transform="translate(45.338 2.514)">
          <path id="Rang" d="M-.384,0,4.384-22.4H18.192l2.592,3.3L19.312-12.16l-2.336,1.792,1.5,2.128L16.72,0H12.192L13.6-6.64l-1.248-1.6H5.9L4.144,0ZM2.384-2.272H2.368l1.776-8.336h9.808L16.08-7.456l-1.1,5.184H14.96l1.1-5.184-2.112-3.152,3.184-2.432L18.224-18.1l-1.632-2.048H6.192Zm4.48-10.5h7.072l1.184-.992.672-3.136-.768-.976H7.952Zm-2.72,2.176L6.176-20.16H16.592L18.24-18.1,17.152-13.04l-3.216,2.448ZM19.632,0,23.7-19.1l4-3.3H38.032l2.592,3.3L36.56,0H32.048l1.408-6.592h-7.9L24.144,0Zm2.736-2.272h-.016l1.392-6.512H36.256L34.864-2.272h-.016L38.224-18.16l-1.568-1.984h-8.48L25.744-18.16ZM26.512-11.1h7.9L35.648-16.9l-.768-.976H28.928l-1.184.976ZM23.744-8.768l1.984-9.392,2.448-2h8.48l1.584,2L36.256-8.768Zm18.624,6.5h-.016L46.16-20.144h4.7L52.608-2.272H57.28l3.808-17.872H61.1L57.3-2.272H52.608L50.864-20.144H46.176ZM39.632,0,44.4-22.4h8.688L54.672-4.592h.848L59.312-22.4H63.84L59.072,0H50.384L48.768-17.856h-.816L44.16,0ZM65.44,0,62.848-3.3,66.208-19.1l4-3.3H80.384l2.592,3.3-.864,4.032H77.6L78-16.9l-.768-.976H71.424L70.24-16.864,67.824-5.488l.752.96h5.808L75.568-5.5l.48-2.208H71.616l.96-4.512H81.52L79.616-3.3l-4,3.3Zm1.7-2.272H74.9l2.72-2.24L78.768-9.92h0L77.616-4.512,74.9-2.272h-7.76l-1.76-2.24L68.24-18l2.608-2.144h8.016L80.48-18l-.176.848L80.48-18l-1.616-2.144H70.848L68.24-18,65.376-4.512Z" transform="translate(0.998 22)" fill="#fff"/>
          <path id="CLOTHING_COMPANY" data-name="CLOTHING COMPANY" d="M2.97.075A2.728,2.728,0,0,0,5.108-.772l-.57-.615A2,2,0,0,1,3.045-.78C1.973-.78,1.4-1.357,1.4-2.227A2.135,2.135,0,0,1,3.585-4.47a1.564,1.564,0,0,1,1.357.615l.705-.592a2.274,2.274,0,0,0-2-.878A3.077,3.077,0,0,0,.42-2.168,2.252,2.252,0,0,0,2.97.075ZM5.58,0H9.3l.165-.825H6.72L7.605-5.25H6.63Zm6.84.075a3.073,3.073,0,0,0,3.218-3.157,2.227,2.227,0,0,0-2.513-2.242A3.073,3.073,0,0,0,9.908-2.168,2.227,2.227,0,0,0,12.42.075ZM12.5-.78A1.413,1.413,0,0,1,10.89-2.227,2.126,2.126,0,0,1,13.035-4.47a1.419,1.419,0,0,1,1.62,1.448A2.132,2.132,0,0,1,12.5-.78ZM16.92,0H17.9l.877-4.425h1.74l.172-.825H16.23l-.165.825h1.74Zm8.01-5.25L24.5-3.1H21.788l.427-2.153H21.24L20.19,0h.975l.443-2.227h2.715L23.88,0h.968L25.9-5.25ZM26.085,0h.975l1.05-5.25h-.975Zm6.952-5.25L32.31-1.575,30.15-5.25h-.8L28.3,0h.967L30-3.675,32.153,0h.8l1.05-5.25Zm4.95,4.223a2.158,2.158,0,0,1-1.02.247c-1.11,0-1.68-.585-1.68-1.447A2.148,2.148,0,0,1,37.522-4.47a1.722,1.722,0,0,1,1.447.593l.705-.585a2.542,2.542,0,0,0-2.108-.862A3.085,3.085,0,0,0,34.3-2.168,2.259,2.259,0,0,0,36.855.075,3.2,3.2,0,0,0,38.813-.57l.427-2.115h-.923Zm6.368,1.1a2.728,2.728,0,0,0,2.138-.847l-.57-.615A2,2,0,0,1,44.43-.78c-1.072,0-1.642-.577-1.642-1.447A2.135,2.135,0,0,1,44.97-4.47a1.564,1.564,0,0,1,1.358.615l.7-.592a2.274,2.274,0,0,0-1.995-.878A3.077,3.077,0,0,0,41.8-2.168,2.252,2.252,0,0,0,44.355.075Zm5.122,0a3.073,3.073,0,0,0,3.218-3.157,2.227,2.227,0,0,0-2.513-2.242,3.073,3.073,0,0,0-3.218,3.157A2.227,2.227,0,0,0,49.477.075ZM49.56-.78a1.413,1.413,0,0,1-1.612-1.447A2.126,2.126,0,0,1,50.092-4.47a1.419,1.419,0,0,1,1.62,1.448A2.132,2.132,0,0,1,49.56-.78Zm9.383-4.47-2.722,3.5-1.388-3.5h-.8L52.987,0h.93l.7-3.51,1.2,2.91h.435l2.243-2.842L57.81,0h.922l1.05-5.25Zm4.1,0H61.02L59.97,0h.975l.307-1.515h1.283c1.545,0,2.505-.81,2.505-2.152C65.04-4.665,64.313-5.25,63.045-5.25Zm-.472,2.91H61.417l.412-2.085h1.11c.713,0,1.117.277,1.117.847C64.057-2.767,63.517-2.34,62.572-2.34ZM68.872,0h.967L68.535-5.25h-.967L64.155,0H65.2l.757-1.215h2.64ZM66.435-1.98l1.448-2.31.532,2.31Zm8.64-3.27-.728,3.675L72.188-5.25h-.8L70.335,0H71.3l.735-3.675L74.19,0h.8l1.05-5.25Zm6.525,0H80.58L78.51-2.685,77.475-5.25h-.967L77.88-1.86,77.512,0h.968l.36-1.792Z" transform="translate(0 33.022)" fill="#fff" opacity="0.8"/>
        </g>
      </g>
    </g>
    <g id="Group_105302" data-name="Group 105302" transform="translate(2782 -3499)">
      <g transform="matrix(1, 0, 0, 1, -2680.5, 3505.5)" filter="url(#Ellipse_21)">
        <circle id="Ellipse_21-2" data-name="Ellipse 21" cx="28" cy="28" r="28" transform="translate(4.5 4.5)" fill="#fff"/>
      </g>
      <g id="Group_105297" data-name="Group 105297" transform="translate(-2716.935 3671.039)">
        <g id="Layer_1" data-name="Layer 1" transform="translate(53 -158)">
          <path id="Path_116230" data-name="Path 116230" d="M153.171,111.14c3.04-2.107.7-4.5-1.484-6.354-5.83-4.988-16.78-10.272-23.693-14.386-2.348-1.4-11-6.572-7.2-9.908,1.6-1.393,4.492-1.26,6.954-1.192A50.167,50.167,0,0,0,115,75.227a42.773,42.773,0,0,1,2.772,10.668c.337,2.9.469,9.448-3.978,9.267-4.515-.214-10.886-11.354-11.755-15.315-1.538-7.018,4.265-8.455,9.671-8.2a48.463,48.463,0,0,0-9.884-15.465A49.51,49.51,0,0,1,113.5,71.79c.492.054.969.114,1.434.191,3.545.583,17.7,4.214,18.023,8.124.328,3.855-7.066,1.515-9.79,2.608,1.033,1.51,5.1,4.228,6.462,5.194,6.713,4.8,16.052,10.236,21.882,15.729,2.152,2.093,5.361,5.379,1.666,7.5h0ZM112.893,74.881c-.66-.082-1.265-.137-1.793-.159-7.61-.309-7.223,3.468-4.051,9.048.838,1.47,5.261,8.424,6.927,8.246.906-.1,1.027-5.254,1-5.894a41,41,0,0,0-2.084-11.241h0Z" transform="translate(-101.787 -56.18)" fill="#dd2a1b" fill-rule="evenodd"/>
          <path id="Path_116231" data-name="Path 116231" d="M126.18,97.28a11.722,11.722,0,0,1,2.107.341s.478,1.242.632,1.691-2,.464-2,.464" transform="translate(-115.078 -78.575)" opacity="0.75" fill="url(#linear-gradient)" style="mix-blend-mode: multiply;isolation: isolate"/>
          <path id="Path_116232" data-name="Path 116232" d="M122.414,87.276l1.565-.086s.71,1.434.751,1.5c0,0-1.356-.127-1.788-.146l-.533-1.3" transform="translate(-113.024 -73.077)" fill="url(#linear-gradient-2)" style="mix-blend-mode: multiply;isolation: isolate"/>
          <path id="Path_116233" data-name="Path 116233" d="M126.041,117.861c.023.637-.091,5.8-1,5.894-.673.073-1.793-1.015-2.945-2.435,1.425,1.921,3.34,3.909,5.448,4.451,1.671-1.971,1.538-6.026,1.292-8.138q-.157-1.338-.419-2.69c-.71-.15-1.766-.346-2.671-.515C125.9,115.581,126.005,116.728,126.041,117.861Z" transform="translate(-112.855 -87.919)" fill-rule="evenodd" fill="url(#linear-gradient-3)" style="mix-blend-mode: multiply;isolation: isolate"/>
          <path id="Path_116234" data-name="Path 116234" d="M145.611,110.233c2.355-.756,7.532.555,9.125-1.047a38.575,38.575,0,0,0-4.884-2.376c.05.027.1.05.155.077-2.462-.073-5.352-.2-6.954,1.192a3.007,3.007,0,0,0-.423.455l2.985,1.7Z" transform="translate(-124.042 -83.767)" fill-rule="evenodd" fill="url(#linear-gradient-4)" style="mix-blend-mode: multiply;isolation: isolate"/>
          <path id="Path_116235" data-name="Path 116235" d="M106.453,98.53c-.023.009-.045.014-.068.023a8.045,8.045,0,0,0-4.365,3.572c.036.255.082.519.141.792a20.75,20.75,0,0,0,1.734,4.365l2.967-.987c-2-3.668-2.667-6.485-.409-7.764Z" transform="translate(-101.914 -79.256)" fill-rule="evenodd" fill="url(#linear-gradient-5)" style="mix-blend-mode: multiply;isolation: isolate"/>
        </g>
      </g>
    </g>
  </g>
</svg>
