<svg id="Layer_2" data-name="Layer 2" xmlns="http://www.w3.org/2000/svg" xmlns:xlink="http://www.w3.org/1999/xlink" width="37.683" height="37.683" viewBox="0 0 37.683 37.683">
  <defs>
    <linearGradient id="linear-gradient" x1="-0.064" y1="1.055" x2="1.114" y2="-0.105" gradientUnits="objectBoundingBox">
      <stop offset="0" stop-color="#fed576"/>
      <stop offset="0.26" stop-color="#f47133"/>
      <stop offset="0.61" stop-color="#bc3081"/>
      <stop offset="1" stop-color="#4c63d2"/>
    </linearGradient>
  </defs>
  <g id="Layer_1" data-name="Layer 1">
    <rect id="Rectangle_20637" data-name="Rectangle 20637" width="37.683" height="37.683" rx="3" fill="url(#linear-gradient)"/>
    <g id="_Group_" data-name="&lt;Group&gt;" transform="translate(7.536 7.537)">
      <path id="_Compound_Path_" data-name="&lt;Compound Path&gt;" d="M11.31,5H22.664c.252.126.631.126.883.252a6.03,6.03,0,0,1,4.794,4.163,10.092,10.092,0,0,1,.378,1.892v11.1a8.755,8.755,0,0,1-1.514,3.911,6.951,6.951,0,0,1-5.677,2.4H12.067A6.926,6.926,0,0,1,7.4,27.2,6.951,6.951,0,0,1,5,21.577V12.746a9.55,9.55,0,0,1,.126-1.892A6.182,6.182,0,0,1,9.922,5.429ZM7.4,16.985V21.9a4.315,4.315,0,0,0,4.668,4.668q4.92.189,9.84,0c2.9,0,4.542-1.766,4.668-4.668q.189-4.92,0-9.84A4.441,4.441,0,0,0,21.907,7.4q-4.92-.189-9.84,0A4.315,4.315,0,0,0,7.4,12.065Z" transform="translate(-4.992 -5)" fill="#fff"/>
      <path id="_Compound_Path_2" data-name="&lt;Compound Path&gt;" d="M9.64,15.822A6.194,6.194,0,0,1,15.822,9.64,6.308,6.308,0,0,1,22,15.822,6.194,6.194,0,0,1,15.822,22,6.308,6.308,0,0,1,9.64,15.822Zm6.182-3.911A3.848,3.848,0,1,0,19.606,15.7,3.785,3.785,0,0,0,15.822,11.911Z" transform="translate(-3.777 -3.786)" fill="#fff"/>
      <path id="_Path_" data-name="&lt;Path&gt;" d="M18.34,9.754A1.463,1.463,0,0,1,19.854,8.24a1.627,1.627,0,0,1,1.514,1.514,1.514,1.514,0,0,1-3.028,0Z" transform="translate(-1.501 -4.153)" fill="#fff"/>
    </g>
  </g>
</svg>
