<svg xmlns="http://www.w3.org/2000/svg" xmlns:xlink="http://www.w3.org/1999/xlink" width="114.266" height="31.729" viewBox="0 0 114.266 31.729">
  <defs>
    <clipPath id="clip-path">
      <rect id="Rectangle_20670" data-name="Rectangle 20670" width="24.866" height="30.885" fill="#fff"/>
    </clipPath>
  </defs>
  <g id="Group_107081" data-name="Group 107081" transform="translate(-1184 -4259)">
    <g id="Group_107079" data-name="Group 107079" transform="translate(1184 4259)">
      <g id="Group_107051" data-name="Group 107051" transform="translate(0 0)">
        <g id="Group_105462" data-name="Group 105462" transform="translate(0 0)">
          <g id="Group_105461" data-name="Group 105461" clip-path="url(#clip-path)">
            <path id="Path_116300" data-name="Path 116300" d="M17.181,25.784l-1.9,5.093c-.358,0-.682.019-1,0A15.3,15.3,0,0,1,.542,19.637c-.122-.451-.21-.912-.313-1.369C.2,18.116.084,17.26.059,16.973a14.736,14.736,0,0,1,.672-5.927c.332-1.011.723-2,1.1-3Q2.987,4.933,4.155,1.823c.2-.534.4-1.069.593-1.606A.27.27,0,0,1,5.039,0C6.7.006,8.364,0,10.026.006c.075,0,.15.01.256.018-.029.1-.047.179-.076.256Q8.653,4.433,7.1,8.586c-.4,1.077-.815,2.152-1.2,3.234a10.023,10.023,0,0,0,1.018,9.248,9.95,9.95,0,0,0,7.1,4.578,12.984,12.984,0,0,0,1.476.113c.46.018.92,0,1.381.005.09,0,.179.011.307.019" transform="translate(0 0)" fill="#fff"/>
            <path id="Path_116301" data-name="Path 116301" d="M90.122,82.059c-.329.879-.65,1.72-.959,2.564s-.648,1.678-.948,2.575h5.459c-.05.272-1.767,4.8-1.82,4.958a.238.238,0,0,1-.266.183c-.324-.008-.648,0-.972,0-.758,0-1.517.008-2.275,0a5.2,5.2,0,0,1-4.927-6.991c.375-1.023.762-2.042,1.146-3.063.09-.24.093-.24.346-.241l4.985,0c.059,0,.117.009.229.018" transform="translate(-72.66 -71.74)" fill="#fff"/>
            <path id="Path_116302" data-name="Path 116302" d="M118.4.054l-1.9,5.1c.127.01.223.025.32.025q1.5,0,2.991,0h1.841c.092,0,.184.008.31.013-.114.461-.309.866-.456,1.286s-.316.846-.474,1.269l-.474,1.269-.477,1.279H114.6l1.911-5.109c-.15-.011-.257-.024-.363-.025H111.37c-.1,0-.2-.008-.33-.014.035-.118.056-.207.088-.293q.864-2.309,1.731-4.617c.076-.2.079-.206.294-.206q2.519,0,5.037,0c.058,0,.116.011.213.021" transform="translate(-97.098 -0.028)" fill="#fff"/>
          </g>
        </g>
      </g>
    </g>
    <g id="Group_107080" data-name="Group 107080" transform="translate(1215.989 4259)">
      <path id="Path_116365" data-name="Path 116365" d="M16.529-89.894l-.12,2.543h-4.15V-98.914H14.37v-2.615H7.15v2.615H8.781v11.562H7.15v2.615H19.384l.24-5.133ZM27.9-101.528H21.159v2.615H22.79v11.562H21.159v2.615H27.9v-2.615H26.268V-98.914H27.9Zm14.944,0H30.274v2.615h1.631v11.562H30.274v2.615h6.741v-2.615H35.383v-3.622h5.061v-2.615H35.383v-5.325h4.366v1.9h3.094Zm14.225,0H44.5v2.615H46.13v11.562H44.5v2.615h6.741v-2.615H49.608v-3.622h5.061v-2.615H49.608v-5.325h4.366v1.9h3.094Zm.84,0v4.51h3.118v-1.9h1.991v11.562H61.41v2.615h6.717v-2.615H66.543V-98.914h2.015v1.9h3.094v-4.51Zm14.8,8.276c0,5.205,3.286,8.8,8.372,8.8,5.037,0,8.348-3.574,8.348-8.8,0-5.181-3.286-8.564-8.348-8.564S72.708-98.434,72.708-93.252Zm12.881.024c0,3.358-1.7,5.9-4.582,5.9-2.9,0-4.486-2.591-4.486-5.829,0-3.382,1.727-5.781,4.582-5.781C83.934-98.937,85.589-96.539,85.589-93.228Z" transform="translate(-7.15 116.179)" fill="#fff"/>
      <path id="Path_116411" data-name="Path 116411" d="M3.827-5.469H.912V2.32h.823V-.139H3.827c1.981,0,3.182-1,3.182-2.659S5.808-5.469,3.827-5.469ZM3.8-.862H1.735V-4.757H3.8c1.558,0,2.381.712,2.381,1.958C6.186-1.574,5.363-.862,3.8-.862Zm7.177,3.238A2.879,2.879,0,0,0,13.953-.606a2.87,2.87,0,0,0-2.971-2.971A2.879,2.879,0,0,0,8-.606,2.888,2.888,0,0,0,10.982,2.376Zm0-.7A2.143,2.143,0,0,1,8.8-.606a2.143,2.143,0,0,1,2.181-2.281,2.134,2.134,0,0,1,2.17,2.281A2.134,2.134,0,0,1,10.982,1.675ZM23.266-3.533,21.408,1.441,19.538-3.533H18.86l-1.88,4.974L15.143-3.533h-.757l2.2,5.853h.745l1.847-4.8,1.847,4.8h.745l2.214-5.853ZM30.12-.606a2.789,2.789,0,0,0-2.837-2.971,2.819,2.819,0,0,0-2.86,2.971,2.9,2.9,0,0,0,3.071,2.982,2.881,2.881,0,0,0,2.259-.957L29.308.907a2.307,2.307,0,0,1-1.791.768,2.166,2.166,0,0,1-2.3-2.036h4.9C30.109-.45,30.12-.539,30.12-.606ZM27.283-2.9A2.036,2.036,0,0,1,29.363-.951h-4.15A2.033,2.033,0,0,1,27.283-2.9Zm5.207.512V-3.533h-.757V2.32h.79V-.662A1.893,1.893,0,0,1,34.493-2.82c.056,0,.122.011.189.011v-.768A2.207,2.207,0,0,0,32.49-2.387Zm8.668,1.78A2.789,2.789,0,0,0,38.32-3.577a2.819,2.819,0,0,0-2.86,2.971,2.9,2.9,0,0,0,3.071,2.982,2.881,2.881,0,0,0,2.259-.957L40.346.907a2.307,2.307,0,0,1-1.791.768,2.166,2.166,0,0,1-2.3-2.036h4.9C41.147-.45,41.158-.539,41.158-.606ZM38.32-2.9A2.036,2.036,0,0,1,40.4-.951h-4.15A2.033,2.033,0,0,1,38.32-2.9Zm9-3.038V-2.42A2.556,2.556,0,0,0,45.1-3.577,2.831,2.831,0,0,0,42.181-.606,2.841,2.841,0,0,0,45.1,2.376a2.535,2.535,0,0,0,2.259-1.213V2.32h.757V-5.936ZM45.163,1.675A2.143,2.143,0,0,1,42.983-.606a2.143,2.143,0,0,1,2.181-2.281,2.141,2.141,0,0,1,2.17,2.281A2.141,2.141,0,0,1,45.163,1.675ZM56.246-3.577A2.556,2.556,0,0,0,54.02-2.42V-5.936h-.79V2.32h.757V1.163a2.535,2.535,0,0,0,2.259,1.213A2.841,2.841,0,0,0,59.161-.606,2.831,2.831,0,0,0,56.246-3.577ZM56.19,1.675A2.143,2.143,0,0,1,54.009-.606,2.143,2.143,0,0,1,56.19-2.887,2.149,2.149,0,0,1,58.371-.606,2.149,2.149,0,0,1,56.19,1.675Zm8.557-5.207-2.2,4.974-2.2-4.974h-.823l2.615,5.842-.256.567c-.334.734-.69.979-1.213.979a1.462,1.462,0,0,1-1.068-.445L59.228,4a2,2,0,0,0,1.424.534c.835,0,1.458-.367,1.947-1.513l2.926-6.554Z" transform="translate(-0.912 5.936)" fill="#fff"/>
    </g>
  </g>
</svg>
