<svg id="_152e4e08fc1f188955968009286de9f7" data-name="152e4e08fc1f188955968009286de9f7" xmlns="http://www.w3.org/2000/svg" width="37.683" height="37.683" viewBox="0 0 37.683 37.683">
  <rect id="Rectangle_20639" data-name="Rectangle 20639" width="37.683" height="37.683" rx="3" fill="#0986c8"/>
  <path id="Path_116272" data-name="Path 116272" d="M31.872,30.029c-1.236-.029-2.443-.029-3.68,0-.265,0-.324-.059-.324-.324V23.14a4.923,4.923,0,0,0-.177-1.472,2.139,2.139,0,0,0-3.474-1.06,2.551,2.551,0,0,0-.942,2.149V28.94a7.693,7.693,0,0,0,0,.824c.029.236-.088.294-.294.265H19.213c-.236,0-.294-.059-.294-.294.029-1.855.029-3.709.029-5.594,0-2.3,0-4.593-.029-6.859,0-.265.059-.324.294-.324h3.768c.236,0,.294.059.294.294v1.5l.147-.147A4.391,4.391,0,0,1,28.1,16.752a4.643,4.643,0,0,1,3.974,4.239,10.722,10.722,0,0,1,.118,1.678v7.036C32.2,29.941,32.137,30.029,31.872,30.029ZM16.564,23.493v6.182c0,.265-.059.353-.324.353-1.236-.029-2.473,0-3.709,0-.236,0-.294-.059-.294-.294V17.252c0-.206.059-.294.294-.294h3.8c.265,0,.294.088.294.324C16.564,19.342,16.564,21.4,16.564,23.493Zm.206-9.951a2.393,2.393,0,0,1-2.885,1.619,2.254,2.254,0,0,1,.53-4.475A2.254,2.254,0,0,1,16.77,13.543Z" transform="translate(-2.57 -2.297)" fill="#fff"/>
</svg>
