<svg id="favorite" xmlns="http://www.w3.org/2000/svg" width="37.932" height="37.932" viewBox="0 0 37.932 37.932">
  <path id="Path_116238" data-name="Path 116238" d="M28.145,34.41a1.582,1.582,0,0,1-.722-.177L19.518,30.1l-7.906,4.136a1.583,1.583,0,0,1-1.637-.116A1.555,1.555,0,0,1,9.354,32.6l1.513-8.759-6.4-6.2a1.544,1.544,0,0,1,.861-2.631l8.845-1.281,3.957-7.964a1.611,1.611,0,0,1,2.778,0l3.957,7.964,8.845,1.281a1.544,1.544,0,0,1,.861,2.631l-6.4,6.2L29.682,32.6a1.554,1.554,0,0,1-1.528,1.806Z" transform="translate(-0.552 -0.685)" fill="#de291b"/>
  <path id="Path_116239" data-name="Path 116239" d="M0,0H37.932V37.932H0Z" fill="none"/>
</svg>
