<svg xmlns="http://www.w3.org/2000/svg" width="34.888" height="26.41" viewBox="0 0 34.888 26.41">
  <g id="cdc146e1dd0d5ff5039d93c9c47009d0" transform="translate(-6.653 -12.813)">
    <path id="Path_116245" data-name="Path 116245" d="M16.6,41.208a3.434,3.434,0,1,0,3.434,3.434A3.433,3.433,0,0,0,16.6,41.208Zm0,4.575a1.141,1.141,0,1,1,1.142-1.14,1.141,1.141,0,0,1-1.142,1.14Zm19.285-4.575a3.434,3.434,0,1,0,3.434,3.434,3.433,3.433,0,0,0-3.434-3.434Zm0,4.575a1.141,1.141,0,1,1,1.141-1.141,1.141,1.141,0,0,1-1.141,1.141Z" transform="translate(-2.031 -8.852)" fill="#de291b"/>
    <path id="Path_116246" data-name="Path 116246" d="M40.854,31.936h-.235V23.409a2.437,2.437,0,0,0-.425-1.264l-3.9-5.128a1.6,1.6,0,0,0-1.131-.56H28.823V13.517a.7.7,0,0,0-.7-.7H10.525a2.815,2.815,0,0,0-2.816,2.816V31.936H7.341a.688.688,0,0,0-.688.688v2.462a.7.7,0,0,0,.7.7h2.4a4.81,4.81,0,1,1,9.62,0h9.666a4.81,4.81,0,1,1,9.62,0h2.173a.7.7,0,0,0,.7-.7V32.624a.685.685,0,0,0-.687-.688Zm-10.244-8.7V19.121h2.931a1.51,1.51,0,0,1,1.073.538l2.62,3.575H30.61Z" transform="translate(0 0)" fill="#de291b"/>
  </g>
</svg>
