<svg xmlns="http://www.w3.org/2000/svg" width="28.692" height="28.692" viewBox="0 0 28.692 28.692">
  <g id="_80a98bc0ea31c53e2bbc7f8b04aa8654" data-name="80a98bc0ea31c53e2bbc7f8b04aa8654" transform="translate(-2 -2.5)">
    <path id="Path_116240" data-name="Path 116240" d="M4.3,10.5H28.4a2.344,2.344,0,0,1,2.3,2.389V27.224a2.344,2.344,0,0,1-2.3,2.389H4.3A2.344,2.344,0,0,1,2,27.224V12.889A2.344,2.344,0,0,1,4.3,10.5Z" transform="translate(0 1.579)" fill="#de291b"/>
    <path id="Path_116241" data-name="Path 116241" d="M7.126,2.5H24.01a1.162,1.162,0,0,1,1.126,1.195A1.162,1.162,0,0,1,24.01,4.889H7.126A1.162,1.162,0,0,1,6,3.695,1.162,1.162,0,0,1,7.126,2.5Z" transform="translate(0.778)" fill="#de291b"/>
    <path id="Path_116242" data-name="Path 116242" d="M5.139,6.5H26.775a1.2,1.2,0,0,1,0,2.389H5.139a1.2,1.2,0,0,1,0-2.389Z" transform="translate(0.389 0.782)" fill="#de291b"/>
  </g>
</svg>
