<svg id="Group_105339" data-name="Group 105339" xmlns="http://www.w3.org/2000/svg" width="37.683" height="37.683" viewBox="0 0 37.683 37.683">
  <rect id="Rectangle_20632" data-name="Rectangle 20632" width="37.683" height="37.683" rx="3" transform="translate(0)" fill="#f44436"/>
  <g id="_2443570c3018eacc9a2e73733e21dec3" data-name="2443570c3018eacc9a2e73733e21dec3" transform="translate(8.793 12.561)">
    <path id="Exclusion_1" data-name="Exclusion 1" d="M10.051,13.816c-2.468,0-5.615-.038-6.857-.112-1.208-.082-1.8-.27-2.344-1.226C.27,11.487,0,9.719,0,6.914V6.9c0-2.84.262-4.559.85-5.572C1.4.368,1.989.183,3.2.114,4.436.03,7.55,0,10.051,0S15.668.03,16.9.116c1.208.067,1.8.251,2.34,1.216.592,1.006.856,2.725.856,5.574v.01c0,2.851-.263,4.566-.854,5.562-.539.958-1.13,1.146-2.34,1.228C15.647,13.778,12.505,13.816,10.051,13.816ZM7.537,3.139v7.538l6.28-3.769L7.537,3.139Z" transform="translate(0 0)" fill="#fff"/>
  </g>
</svg>
